<svg width="776" height="698" viewBox="0 0 776 698" fill="none" xmlns="http://www.w3.org/2000/svg">
<path fill-rule="evenodd" clip-rule="evenodd" d="M667.536 657.08C734.701 587.322 776 492.484 776 388C776 173.714 602.286 0 388 0C173.714 0 0 173.714 0 388C0 514.609 60.6421 627.055 154.465 697.875C160.249 694.785 165.864 691.358 171.48 687.929L171.489 687.924C175.277 685.612 179.065 683.299 182.906 681.089C185.361 679.677 186.285 678.393 185.036 675.575C183.404 671.895 182.815 667.919 183.204 663.872C183.373 662.11 183.069 660.576 181.838 659.391C180.921 658.896 179.966 659.316 179.045 659.722C177.869 660.24 176.747 660.733 175.826 659.271C173.262 655.199 170.975 650.932 170.415 645.987C170.026 642.542 171.097 639.413 172.163 636.295C172.494 635.33 172.824 634.365 173.11 633.393C177.075 619.919 178.678 606.13 179.564 592.155C180.324 580.159 179.7 568.268 178.365 556.391C177.862 551.916 179.262 548.804 182.711 546.007C199.332 532.529 208.336 514.392 213.647 494.174C215.58 486.816 215.092 479.253 213.167 471.946C207.983 452.262 204.266 432.39 204.357 411.94C204.364 410.472 204.259 408.94 202.764 407.056C202.279 407.94 201.802 408.795 201.334 409.633C200.333 411.426 199.375 413.141 198.487 414.891C195.65 420.482 192.154 425.447 186.437 428.486C184.153 429.699 182.498 430.399 179.342 429.29C177.082 428.495 174.273 429.263 171.462 430.031C170.222 430.37 168.981 430.71 167.786 430.915C167.644 430.939 167.501 430.971 167.357 431.006C167.212 431.042 167.067 431.082 166.921 431.121C165.795 431.427 164.633 431.742 163.44 430.413C163.95 429.866 164.461 429.32 164.971 428.774C165.758 427.934 166.544 427.094 167.329 426.254C168.232 425.286 169.134 424.316 170.03 423.343C174.81 418.15 174.705 412.001 174.597 405.7C174.579 404.655 174.561 403.605 174.565 402.555C174.622 388.414 179.714 376.796 192.359 368.901C202.883 362.33 211.795 353.568 219.575 344.027C234.302 325.965 253.618 316.931 275.94 312.851C290.053 310.271 304.292 308.615 318.523 306.96C323.405 306.393 328.285 305.825 333.16 305.22C361.612 301.69 386.682 291.252 406.679 270.669C422.57 254.314 442.572 249.316 463.873 246.936C479.359 245.205 493.327 240.666 504.311 228.804C519.365 212.55 534.666 196.524 549.999 180.533C552.388 178.041 552.172 176.33 550.304 173.739C545.121 166.551 540.59 158.98 538.965 150.069C538.668 148.443 538.425 146.755 538.53 145.12C538.812 140.749 540.257 139.863 544.365 141.503C550.723 144.042 555.896 148.362 561.063 152.677L562.069 153.516C563.476 154.688 564.856 155.896 566.204 157.136C567.634 158.453 569.092 158.488 570.768 157.587C572.667 156.567 572.715 155.016 572.131 153.316C564.916 132.301 551.215 113.88 526.762 109.478C509.503 106.371 494.168 110.896 480.119 120.845C479.974 120.948 479.834 121.063 479.696 121.183C479.592 121.274 479.489 121.368 479.385 121.463C478.53 122.242 477.611 123.081 475.641 122.612C483.656 106.406 497.328 98.054 514.975 93.0549C501.246 86.98 488.141 87.5684 475.227 89.812C462.172 92.0798 450.085 97.251 439.747 106.774C438.908 104.204 439.921 102.762 440.847 101.446C441.008 101.217 441.166 100.992 441.311 100.765C452.234 83.7407 468.699 75.6882 487.874 71.8638C499.264 69.5918 510.648 69.4922 522.542 71.0488C541.231 74.1494 557.864 81.1448 572.495 92.4016C589.863 105.765 603.241 122.334 610.551 143.269C611.877 147.067 613.499 150.016 617.299 151.911C625.147 155.825 626.491 163.633 627.771 171.079L627.891 171.771C628.682 176.345 630.697 179.755 633.746 182.979C646.286 196.236 660.671 207.313 675.22 218.187C679.136 221.113 681.358 224.257 678.809 229.161C677.941 230.83 677.896 232.661 677.852 234.472L677.851 234.508C677.842 234.85 677.834 235.191 677.819 235.531C677.224 249.671 665.677 254.862 655.61 251.792C654.687 251.511 653.756 251.26 652.824 251.009L652.805 251.004C652.298 250.867 651.79 250.731 651.285 250.589C646.171 249.158 643.204 250.457 640.749 255.288C638.225 260.256 638.099 265.586 637.974 270.924V270.926L637.952 271.819C637.931 272.667 637.907 273.514 637.869 274.36C637.815 275.573 637.891 276.794 637.967 278.031L637.968 278.038C638.117 280.445 638.27 282.912 637.483 285.501C635.723 284.95 634.941 283.635 634.14 282.287C633.505 281.217 632.857 280.126 631.698 279.382C629.705 286.252 627.656 293.115 620.126 296.41C623.729 288.357 620.848 282.233 615.682 276.262C608.443 267.894 607.8 258.273 611.667 248.157C612.023 247.228 612.347 246.285 612.634 245.332C612.672 245.207 612.68 245.073 612.677 244.936C612.676 244.869 612.672 244.802 612.667 244.735C612.657 244.606 612.644 244.476 612.641 244.35C606.718 240.875 597.125 244.605 593.254 252.146C590.247 258.005 589.156 264.392 588.066 270.778C587.758 272.578 587.451 274.379 587.101 276.167C582.072 301.833 576.834 327.419 561.887 349.714C558.562 354.674 557.775 360.433 556.995 366.15C556.761 367.858 556.529 369.562 556.229 371.24C552.579 391.672 542.797 408.214 525.035 419.076C516.258 424.443 511.112 430.757 510.412 441.317C510.111 445.853 509.301 450.374 508.492 454.887L508.491 454.891C507.448 460.714 506.407 466.524 506.464 472.339C506.594 485.626 504.086 498.119 501.147 510.917C498.28 523.399 499.248 536.411 502.666 548.931C504.092 554.156 507.352 558.519 511.358 562.151C515.847 566.219 519.936 570.554 522.413 576.167C523.611 578.882 525.441 579.042 528.113 578.368C549.726 572.915 571.171 566.872 592.482 560.346C592.682 560.284 592.885 560.227 593.088 560.172C593.254 560.126 593.421 560.082 593.588 560.038C594.351 559.837 595.114 559.636 595.822 559.314C600.779 557.06 603.943 558.848 607.12 563.053C619.321 579.202 631.63 595.268 643.94 611.334C651.082 620.656 658.224 629.977 665.344 639.314C668.081 642.902 667.88 647.018 667.679 651.117C667.652 651.67 667.625 652.223 667.606 652.775C667.576 653.592 667.563 654.406 667.589 655.212C667.61 655.834 667.583 656.457 667.536 657.08ZM433.733 478.216L433.732 478.213C432.737 470.246 431.741 462.278 431.312 454.245C431.104 450.365 428.81 449.749 424.881 452.111C410.944 460.491 396.213 466.942 380.193 470.106C364.545 473.197 348.759 475.37 332.852 476.579C328.93 476.877 325.737 477.761 324.433 482.104C318.952 500.358 307.992 515.39 296.162 529.911C291.852 535.201 287.627 540.565 283.491 545.994C279.889 550.722 279.317 555.769 281.44 561.5C284.343 569.336 287.959 576.827 291.724 584.232C298.834 598.217 306.384 611.912 320.176 620.798C322.891 622.547 325.163 625.08 327.351 627.518L327.44 627.618C328.82 629.155 329.961 629.658 332.114 629.342C348.716 626.898 365.063 623.737 381.073 618.319C394.509 613.771 408.219 610.022 421.924 606.274L421.926 606.273C426.025 605.152 430.123 604.031 434.213 602.889C438.653 601.649 440.869 600.092 438.852 594.954C437.613 591.799 437.289 588.185 437.548 584.621C437.7 582.521 437.725 580.229 435.47 578.863C434.807 578.828 434.103 579.159 433.402 579.489C431.975 580.159 430.559 580.825 429.511 578.398C426.664 571.804 424.163 565.373 427.06 557.806C434.954 537.185 438.134 515.838 435.431 492.865C434.951 487.972 434.342 483.094 433.733 478.216ZM278.266 627.154C274.873 622.097 272.86 616.453 271.534 610.581C269.352 600.919 265.27 592.084 260.99 583.188C258.817 578.672 255.705 574.685 252.577 570.676C246.921 563.429 241.21 556.112 240.891 545.471C239.779 546.409 238.69 547.337 237.618 548.254C236.625 549.104 235.648 549.945 234.682 550.777L234.668 550.788C230.18 554.651 225.929 558.308 221.488 561.716C216.182 565.788 213.037 571.001 211.249 577.244C206.294 594.548 203.685 612.281 202.302 630.16C201.807 636.558 202.713 643.145 206.34 648.893C207.771 651.16 209.805 652.815 211.833 654.465C213.293 655.653 214.75 656.839 215.976 658.248C220.486 663.432 225.215 665.174 231.401 661.047C233.111 659.906 235.117 659.189 237.106 658.478C237.648 658.284 238.189 658.091 238.722 657.889C243.476 656.094 248.121 654.014 252.765 651.934C262.078 647.764 271.393 643.593 281.599 641.713C293.419 639.536 293.898 637.747 285.958 628.271C285.842 628.132 285.632 628.071 285.341 627.986C285.176 627.938 284.986 627.883 284.771 627.801C284.508 627.979 284.239 628.185 283.964 628.396C282.271 629.695 280.35 631.167 278.266 627.154ZM457.903 529.637C456.185 539 455.615 548.463 456.308 557.925C456.647 562.547 458.194 567.031 461.05 570.901C462.647 573.064 464.421 575.087 466.195 577.109C468.921 580.216 471.646 583.323 473.727 586.939C474.968 589.097 476.694 588.559 478.289 588.061C478.525 587.988 478.758 587.915 478.986 587.852C479.177 587.8 479.364 587.754 479.546 587.72C479.868 587.661 480.231 587.609 480.614 587.555C482.582 587.277 485.051 586.929 484.852 585.031C484.708 583.667 484.611 582.288 484.512 580.901C484.183 576.244 483.847 571.505 481.76 567.001L477.38 569.08C471.626 562.022 470.169 556.349 472.667 547.612C478.737 526.38 477.884 504.9 475.209 483.374C474.812 480.173 474.278 476.502 471.142 474.08C468.947 475.695 468.65 477.953 468.371 480.078C468.312 480.523 468.255 480.963 468.18 481.39C467.562 484.939 467.104 488.52 466.647 492.1C465.388 501.96 464.128 511.817 459.512 520.985C458.745 522.507 458.549 524.317 458.324 526.394C458.214 527.412 458.097 528.493 457.903 529.637Z" fill="#94A3B8"/>
</svg>
